<?xml version="1.0" standalone="no"?><!DOCTYPE svg PUBLIC "-//W3C//DTD SVG 1.1//EN" "http://www.w3.org/Graphics/SVG/1.1/DTD/svg11.dtd"><svg t="1703731611946" class="icon" viewBox="0 0 1024 1024" version="1.1" xmlns="http://www.w3.org/2000/svg" p-id="894" xmlns:xlink="http://www.w3.org/1999/xlink" width="200" height="200"><path d="M831.317333 170.837333a32 32 0 1 1 0 64h-33.578666l-1.792 3.84-116.693334 209.493334a32 32 0 0 1 6.954667 9.002666l32.426667 62.08a170.666667 170.666667 0 1 1-118.357334 195.413334h-88.277333a32 32 0 0 1-5.845333-0.554667l-4.181334-1.066667-3.413333-1.322666-2.133333-1.109334-2.346667-1.408-3.285333-2.56-2.944-2.986666-2.304-2.986667-127.914667-187.776-10.154667 25.642667a170.666667 170.666667 0 1 1-62.165333-24.064l107.477333-284.586667a74.666667 74.666667 0 0 1 39.168-41.685333l32.298667-14.506667a32 32 0 0 1 26.282667 58.325333l-32.298667 14.549334a10.666667 10.666667 0 0 0-5.546667 5.973333l-70.869333 187.434667h228.693333l114.261334-205.141334h-64.042667a32 32 0 1 1 0-64h170.581333zM768 576c-6.4 0-12.714667 0.554667-18.773333 1.664l47.146666 90.154667A32 32 0 0 1 768 714.666667h-101.802667A106.709333 106.709333 0 1 0 768 576z m-444.757333 23.893333l-37.504 94.549334-1.749334 3.626666-1.706666 2.816-1.962667 2.56-3.328 3.413334-3.328 2.474666-2.133333 1.322667-3.669334 1.706667-4.224 1.365333-4.266666 0.768-1.834667 0.128h-3.328l-2.56-0.256a32.170667 32.170667 0 0 1-3.072-0.554667l-4.949333-1.664-2.56-1.194666-2.389334-1.365334-2.816-2.048a31.786667 31.786667 0 0 1-4.864-4.906666l-2.517333-3.626667-2.474667-5.248-0.853333-2.56-0.768-3.669333a31.829333 31.829333 0 0 1-0.384-5.888l0.256-3.2 0.938667-4.394667 0.853333-2.688 35.925333-95.189333a106.666667 106.666667 0 1 0 61.269334 23.68z m319.914666-86.954666l-76.714666 137.685333h33.877333c7.808-40.96 30.208-76.757333 61.653333-101.717333l-18.816-35.968z m23.04 137.685333h48.938667l-22.613333-43.306667a106.794667 106.794667 0 0 0-23.381334 35.2l-2.901333 8.106667z m-91.349333-146.645333h-145.877333l80.256 117.802666 65.621333-117.76z" p-id="895" fill="#d81e06"></path></svg>